<svg xmlns="http://www.w3.org/2000/svg" xmlns:xlink="http://www.w3.org/1999/xlink" version="1.1" id="Layer_1" x="0px" y="0px" viewBox="0 0 7000 4000" style="enable-background:new 0 0 7000 4000;" xml:space="preserve">
<g>
	<defs>
		<rect id="SVGID_1_" width="7000" height="4000"/>
	</defs>
	<clipPath id="SVGID_00000101102198900379059110000015457411012230030209_">
		<use xlink:href="#SVGID_1_" style="overflow:visible;"/>
	</clipPath>
	<g style="clip-path:url(#SVGID_00000101102198900379059110000015457411012230030209_);">
		<defs>
			
				<rect id="SVGID_00000017475014005782937550000004878348527227284392_" x="16.588" y="16.529" width="6966.824" height="3966.942"/>
		</defs>
		<clipPath id="SVGID_00000176731278491065873640000002775120008398189975_">
			<use xlink:href="#SVGID_00000017475014005782937550000004878348527227284392_" style="overflow:visible;"/>
		</clipPath>
		
			<linearGradient id="SVGID_00000165214051361318518450000012307825766405020575_" gradientUnits="userSpaceOnUse" x1="3500" y1="4273.5571" x2="3500" y2="-2157.45">
			<stop offset="0" style="stop-color:#060612"/>
			<stop offset="1" style="stop-color:#3A3E4A"/>
		</linearGradient>
		
			<rect x="16.588" y="16.529" style="clip-path:url(#SVGID_00000176731278491065873640000002775120008398189975_);fill:url(#SVGID_00000165214051361318518450000012307825766405020575_);" width="6966.824" height="3966.942"/>
	</g>
	<defs>
		<filter id="Adobe_OpacityMaskFilter" filterUnits="userSpaceOnUse" x="16.588" y="16.529" width="4275.597" height="3966.942">
			<feColorMatrix type="matrix" values="1 0 0 0 0  0 1 0 0 0  0 0 1 0 0  0 0 0 1 0"/>
		</filter>
	</defs>
	
		<mask maskUnits="userSpaceOnUse" x="16.588" y="16.529" width="4275.597" height="3966.942" id="SVGID_00000032609349255824636560000008534132619480715957_">
		<g style="filter:url(#Adobe_OpacityMaskFilter);">
			
				<linearGradient id="SVGID_00000042013766592913356720000012331219652001118865_" gradientUnits="userSpaceOnUse" x1="6492.252" y1="-3587.0857" x2="417.8806" y2="4236.5854">
				<stop offset="0" style="stop-color:#FFFFFF"/>
				<stop offset="1" style="stop-color:#000000"/>
			</linearGradient>
			
				<rect x="16.588" y="16.529" style="clip-path:url(#SVGID_00000101102198900379059110000015457411012230030209_);fill:url(#SVGID_00000042013766592913356720000012331219652001118865_);" width="4275.597" height="3966.942"/>
		</g>
	</mask>
	
		<polygon style="clip-path:url(#SVGID_00000101102198900379059110000015457411012230030209_);mask:url(#SVGID_00000032609349255824636560000008534132619480715957_);fill-rule:evenodd;clip-rule:evenodd;fill:#4C5A69;" points="   2154.389,16.529 16.588,2755.39 16.588,3983.471 1195.821,3983.471 4292.185,16.529  "/>
	<defs>
		
			<filter id="Adobe_OpacityMaskFilter_00000106848475333251532250000003465344900219552420_" filterUnits="userSpaceOnUse" x="16.588" y="16.529" width="2137.806" height="2738.861">
			<feColorMatrix type="matrix" values="1 0 0 0 0  0 1 0 0 0  0 0 1 0 0  0 0 0 1 0"/>
		</filter>
	</defs>
	
		<mask maskUnits="userSpaceOnUse" x="16.588" y="16.529" width="2137.806" height="2738.861" id="SVGID_00000110457412961217753180000017384738921891851920_">
		<g style="filter:url(#Adobe_OpacityMaskFilter_00000106848475333251532250000003465344900219552420_);">
			
				<linearGradient id="SVGID_00000168114340450713201360000015253206074756382639_" gradientUnits="userSpaceOnUse" x1="-1990.7023" y1="5356.2603" x2="2071.0544" y2="212.0397" gradientTransform="matrix(1 0 0 1 0 -74.2978)">
				<stop offset="0" style="stop-color:#FFFFFF"/>
				<stop offset="1" style="stop-color:#000000"/>
			</linearGradient>
			
				<rect x="16.588" y="16.529" style="clip-path:url(#SVGID_00000101102198900379059110000015457411012230030209_);fill:url(#SVGID_00000168114340450713201360000015253206074756382639_);" width="2137.806" height="2738.861"/>
		</g>
	</mask>
	
		<polygon style="clip-path:url(#SVGID_00000101102198900379059110000015457411012230030209_);mask:url(#SVGID_00000110457412961217753180000017384738921891851920_);fill-rule:evenodd;clip-rule:evenodd;fill:#4C5A69;" points="   16.588,2755.39 2154.394,16.529 16.588,16.529  "/>
	<defs>
		
			<filter id="Adobe_OpacityMaskFilter_00000095325496263806639030000003069542750478359439_" filterUnits="userSpaceOnUse" x="16.588" y="16.529" width="2137.801" height="2738.861">
			<feColorMatrix type="matrix" values="1 0 0 0 0  0 1 0 0 0  0 0 1 0 0  0 0 0 1 0"/>
		</filter>
	</defs>
	
		<mask maskUnits="userSpaceOnUse" x="16.588" y="16.529" width="2137.801" height="2738.861" id="SVGID_00000135689355846409276340000006965846878013370264_">
		<g style="filter:url(#Adobe_OpacityMaskFilter_00000095325496263806639030000003069542750478359439_);">
			
				<linearGradient id="SVGID_00000173860933448023643180000003078111585225568157_" gradientUnits="userSpaceOnUse" x1="1169.4882" y1="1527.2772" x2="1030.2335" y2="1416.1716" gradientTransform="matrix(1 0 0 1 0 -74.2978)">
				<stop offset="0" style="stop-color:#FFFFFF"/>
				<stop offset="1" style="stop-color:#000000"/>
			</linearGradient>
			
				<rect x="16.588" y="16.529" style="clip-path:url(#SVGID_00000101102198900379059110000015457411012230030209_);fill:url(#SVGID_00000173860933448023643180000003078111585225568157_);" width="2137.801" height="2738.861"/>
		</g>
	</mask>
	
		<polygon style="clip-path:url(#SVGID_00000101102198900379059110000015457411012230030209_);mask:url(#SVGID_00000135689355846409276340000006965846878013370264_);fill-rule:evenodd;clip-rule:evenodd;" points="   16.588,2755.39 2154.389,16.529 2047.886,16.529 16.588,2618.946  "/>
	<defs>
		
			<filter id="Adobe_OpacityMaskFilter_00000078045127564060951030000012938505986569573272_" filterUnits="userSpaceOnUse" x="1195.826" y="16.529" width="3201.15" height="3966.942">
			<feColorMatrix type="matrix" values="1 0 0 0 0  0 1 0 0 0  0 0 1 0 0  0 0 0 1 0"/>
		</filter>
	</defs>
	
		<mask maskUnits="userSpaceOnUse" x="1195.826" y="16.529" width="3201.15" height="3966.942" id="SVGID_00000084521164340862875560000013651299889273655196_">
		<g style="filter:url(#Adobe_OpacityMaskFilter_00000078045127564060951030000012938505986569573272_);">
			
				<linearGradient id="SVGID_00000135678702901441330520000003557767114551879830_" gradientUnits="userSpaceOnUse" x1="2606.1072" y1="1909.896" x2="2796.0442" y2="2053.4666" gradientTransform="matrix(1 0 0 1 71.0901 0)">
				<stop offset="0" style="stop-color:#FFFFFF"/>
				<stop offset="1" style="stop-color:#000000"/>
			</linearGradient>
			
				<rect x="1195.826" y="16.529" style="clip-path:url(#SVGID_00000101102198900379059110000015457411012230030209_);fill:url(#SVGID_00000135678702901441330520000003557767114551879830_);" width="3201.15" height="3966.942"/>
		</g>
	</mask>
	
		<polygon style="clip-path:url(#SVGID_00000101102198900379059110000015457411012230030209_);mask:url(#SVGID_00000084521164340862875560000013651299889273655196_);fill-rule:evenodd;clip-rule:evenodd;" points="   4292.185,16.529 1195.826,3983.471 1302.323,3983.471 4396.976,18.726  "/>
	<defs>
		
			<filter id="Adobe_OpacityMaskFilter_00000003793851089910860430000017323559190558768036_" filterUnits="userSpaceOnUse" x="5110.297" y="1583.718" width="1873.115" height="2399.753">
			<feColorMatrix type="matrix" values="1 0 0 0 0  0 1 0 0 0  0 0 1 0 0  0 0 0 1 0"/>
		</filter>
	</defs>
	
		<mask maskUnits="userSpaceOnUse" x="5110.297" y="1583.718" width="1873.115" height="2399.753" id="SVGID_00000060004837941585763390000004307251617007132833_">
		<g style="filter:url(#Adobe_OpacityMaskFilter_00000003793851089910860430000017323559190558768036_);">
			
				<linearGradient id="SVGID_00000178169243908243616330000000211783653168140476_" gradientUnits="userSpaceOnUse" x1="7203.168" y1="237.1756" x2="4949.4189" y2="4158.8936" gradientTransform="matrix(1 0 0 1 307.0732 0)">
				<stop offset="0" style="stop-color:#FFFFFF"/>
				<stop offset="1" style="stop-color:#000000"/>
			</linearGradient>
			
				<rect x="5110.297" y="1583.718" style="clip-path:url(#SVGID_00000101102198900379059110000015457411012230030209_);fill:url(#SVGID_00000178169243908243616330000000211783653168140476_);" width="1873.116" height="2399.753"/>
		</g>
	</mask>
	
		<polygon style="clip-path:url(#SVGID_00000101102198900379059110000015457411012230030209_);mask:url(#SVGID_00000060004837941585763390000004307251617007132833_);fill-rule:evenodd;clip-rule:evenodd;fill:#4C5A69;" points="   5110.297,3983.471 6983.412,1583.718 6983.412,3983.471  "/>
	<defs>
		
			<filter id="Adobe_OpacityMaskFilter_00000138558288128753883310000001273237494905905311_" filterUnits="userSpaceOnUse" x="5003.794" y="1447.273" width="1979.618" height="2536.198">
			<feColorMatrix type="matrix" values="1 0 0 0 0  0 1 0 0 0  0 0 1 0 0  0 0 0 1 0"/>
		</filter>
	</defs>
	
		<mask maskUnits="userSpaceOnUse" x="5003.794" y="1447.273" width="1979.618" height="2536.198" id="SVGID_00000021821674745548938380000010590737933138441641_">
		<g style="filter:url(#Adobe_OpacityMaskFilter_00000138558288128753883310000001273237494905905311_);">
			
				<linearGradient id="SVGID_00000182490292336420774820000008663732825662765479_" gradientUnits="userSpaceOnUse" x1="5834.3296" y1="2828.6001" x2="5647.2227" y2="2678.749" gradientTransform="matrix(1 0 0 1 300.6527 0)">
				<stop offset="0" style="stop-color:#FFFFFF"/>
				<stop offset="1" style="stop-color:#000000"/>
			</linearGradient>
			
				<rect x="5003.794" y="1447.273" style="clip-path:url(#SVGID_00000101102198900379059110000015457411012230030209_);fill:url(#SVGID_00000182490292336420774820000008663732825662765479_);" width="1979.618" height="2536.198"/>
		</g>
	</mask>
	
		<polygon style="clip-path:url(#SVGID_00000101102198900379059110000015457411012230030209_);mask:url(#SVGID_00000021821674745548938380000010590737933138441641_);fill-rule:evenodd;clip-rule:evenodd;" points="   6983.412,1583.718 5110.297,3983.471 5003.794,3983.471 6983.412,1447.273  "/>
	<g style="clip-path:url(#SVGID_00000101102198900379059110000015457411012230030209_);">
		<defs>
			<path id="SVGID_00000129902945369542357400000009474766863824709028_" d="M4840.049,2052.116V1947.73h25.748     c14.445,0,26.798,5.106,37.058,15.331c10.231,10.175,15.339,22.457,15.339,36.85c0,14.417-5.107,26.698-15.339,36.875     c-10.26,10.223-22.612,15.331-37.058,15.331H4840.049z M4849.612,2042.591h16.185c11.831,0,21.913-4.17,30.281-12.506     c8.365-8.339,12.551-18.39,12.551-30.174c0-11.765-4.186-21.81-12.551-30.146c-8.368-8.341-18.45-12.511-30.281-12.511h-16.185     V2042.591z M4720.883,1947.73v87.018l-52.146-87.018h-10.434v104.387h9.616v-87.018l52.244,87.018h10.354V1947.73H4720.883z      M4513.836,2053.287c-9.959,0-18.474-3.527-25.522-10.546c-7.073-7.025-10.584-15.514-10.584-25.438v-69.353h9.64v69.353     c0,7.273,2.563,13.5,7.72,18.686c5.205,5.187,11.456,7.769,18.748,7.769c7.299,0,13.547-2.582,18.752-7.769     c5.154-5.187,7.749-11.413,7.749-18.686v-69.353h9.606v69.353c0,9.924-3.507,18.413-10.58,25.438     C4532.315,2049.76,4523.795,2053.287,4513.836,2053.287z M4319.17,2053.208c-14.742,0-27.319-5.21-37.729-15.635     c-10.458-10.369-15.688-22.903-15.688-37.587c0-14.665,5.229-27.222,15.688-37.642c10.411-10.374,22.988-15.561,37.729-15.561     c14.74,0,27.336,5.187,37.772,15.561c10.409,10.42,15.619,22.977,15.619,37.642c0,14.684-5.21,27.219-15.619,37.587     C4346.507,2047.997,4333.91,2053.208,4319.17,2053.208z M4319.17,1956.388c-12.057,0-22.364,4.24-30.927,12.777     c-8.571,8.532-12.855,18.807-12.855,30.82c0,12.033,4.285,22.308,12.855,30.845c8.563,8.509,18.87,12.777,30.927,12.777     c12.051,0,22.359-4.268,30.924-12.777c8.568-8.537,12.851-18.812,12.851-30.845c0-12.013-4.283-22.288-12.851-30.82     C4341.529,1960.627,4331.221,1956.388,4319.17,1956.388z M4142.235,2003.982c6.169-1.64,11.224-4.988,15.165-10.026     c4.057-5.187,6.074-11.043,6.074-17.594c0-7.889-2.816-14.642-8.394-20.194c-5.605-5.636-12.351-8.438-20.293-8.438h-37.65     v104.316h9.634v-47.098h25.1l24.578,47.169h10.805L4142.235,2003.982z M4106.771,1995.342v-38.012h28.016     c5.251,0,9.757,1.865,13.494,5.58c3.711,3.749,5.554,8.218,5.554,13.451s-1.843,9.728-5.554,13.448     c-3.737,3.696-8.243,5.532-13.494,5.532H4106.771z M3967.783,2053.138c-14.719,0-27.292-5.21-37.701-15.637     c-10.458-10.372-15.692-22.901-15.692-37.591c0-14.613,5.234-27.147,15.692-37.567c10.409-10.374,22.983-15.561,37.701-15.561     c7.246,0,14.191,1.392,20.796,4.147l-3.789,8.86c-5.403-2.286-11.056-3.402-17.008-3.402c-12.051,0-22.364,4.222-30.927,12.703     c-8.566,8.537-12.823,18.812-12.823,30.82c0,12.032,4.256,22.308,12.823,30.84c8.563,8.518,18.875,12.777,30.927,12.777     c4.88,0,9.583-0.764,14.171-2.329v-36.771h-21.816v-9.605h31.427v52.85l-2.915,1.243     C3982.002,2051.723,3975.029,2053.138,3967.783,2053.138z M3816.747,1947.73l-44.575,55.307v-55.237h-9.616v104.246h9.616     v-33.721l8.84-10.992l37.052,44.784h12.399l-43.25-52.407l41.881-51.979H3816.747z M3633.478,2043.528     c-12.074,0-22.387-4.26-30.95-12.777c-8.543-8.532-12.823-18.809-12.823-30.84c0-12.008,4.28-22.283,12.823-30.82     c8.563-8.532,18.875-12.782,30.95-12.782c8.591,0,16.537,2.334,23.784,7.051v-11.038c-7.496-3.754-15.418-5.613-23.784-5.613     c-14.742,0-27.314,5.21-37.724,15.635c-10.462,10.369-15.692,22.903-15.692,37.567c0,14.69,5.23,27.219,15.692,37.591     c10.41,10.427,22.983,15.637,37.724,15.637c8.365,0,16.288-1.866,23.784-5.613v-11.04     C3650.015,2041.199,3642.069,2043.528,3633.478,2043.528z M3465.383,1960.53v55.878h-35.533L3465.383,1960.53z M3462.092,1947.73     l-66.234,104.387h11.379l16.561-26.103h41.584v26.103h9.536V1947.73H3462.092z M3230.076,2052.116V1947.73h31.523     c7.843,0,14.514,2.754,20.068,8.288c5.58,5.58,8.393,12.253,8.393,20.045c0,8.686-3.339,15.883-10.008,21.614     c4.977,2.309,8.934,5.759,11.902,10.323c3.009,4.694,4.529,9.83,4.529,15.41c0,7.937-2.812,14.713-8.389,20.273     c-5.653,5.633-12.405,8.435-20.299,8.435H3230.076z M3239.71,2042.516h28.087c5.257,0,9.765-1.866,13.494-5.585     c3.714-3.749,5.559-8.238,5.559-13.523c0-5.187-1.844-9.656-5.559-13.372c-3.729-3.703-8.238-5.539-13.494-5.539h-28.087     V2042.516z M3239.71,1994.897h21.889c5.152,0,9.583-1.836,13.269-5.511c3.714-3.696,5.553-8.137,5.553-13.324     c0-5.159-1.84-9.577-5.553-13.223c-3.686-3.673-8.117-5.509-13.269-5.509h-21.889V1994.897z M3076.915,1947.73v87.018     l-52.146-87.018h-10.434v104.387h9.616v-87.018l52.244,87.018h10.354V1947.73H3076.915z M2885.912,2003.982     c6.169-1.64,11.223-4.988,15.165-10.026c4.058-5.187,6.075-11.043,6.075-17.594c0-7.889-2.812-14.642-8.394-20.194     c-5.6-5.636-12.348-8.438-20.294-8.438h-37.649v104.316h9.634v-47.098h25.099l24.578,47.169h10.805L2885.912,2003.982z      M2850.448,1995.342v-38.012h28.015c5.251,0,9.762,1.865,13.494,5.58c3.711,3.749,5.554,8.218,5.554,13.451     s-1.843,9.728-5.554,13.448c-3.732,3.696-8.243,5.532-13.494,5.532H2850.448z M2681.85,1947.73v104.387h53.468v-9.6h-43.852     v-37.939h34.664v-9.608h-34.664v-37.639h43.852v-9.6H2681.85z M2498.139,2052.116V1947.73h25.749     c14.445,0,26.798,5.106,37.057,15.331c10.232,10.175,15.337,22.457,15.337,36.85c0,14.417-5.106,26.698-15.337,36.875     c-10.26,10.223-22.612,15.331-37.057,15.331H2498.139z M2507.704,2042.591h16.185c11.831,0,21.911-4.17,30.281-12.506     c8.365-8.339,12.551-18.39,12.551-30.174c0-11.765-4.185-21.81-12.551-30.146c-8.37-8.341-18.451-12.511-30.281-12.511h-16.185     V2042.591z M2339.656,2053.208c-14.742,0-27.32-5.21-37.731-15.635c-10.457-10.369-15.686-22.903-15.686-37.587     c0-14.665,5.229-27.222,15.686-37.642c10.41-10.374,22.989-15.561,37.731-15.561c14.74,0,27.337,5.187,37.771,15.561     c10.411,10.42,15.621,22.977,15.621,37.642c0,14.684-5.21,27.219-15.621,37.587     C2366.993,2047.997,2354.396,2053.208,2339.656,2053.208z M2339.656,1956.388c-12.056,0-22.364,4.24-30.926,12.777     c-8.571,8.532-12.856,18.807-12.856,30.82c0,12.033,4.285,22.308,12.856,30.845c8.563,8.509,18.87,12.777,30.926,12.777     c12.051,0,22.357-4.268,30.925-12.777c8.568-8.537,12.851-18.812,12.851-30.845c0-12.013-4.283-22.288-12.851-30.82     C2362.013,1960.627,2351.707,1956.388,2339.656,1956.388z M2171.899,1947.73l-40.061,92.325l-39.969-92.325h-10.062v104.316     h9.616v-81.119l35.186,81.19h10.485l35.233-81.19v81.119h9.56V1947.73H2171.899z"/>
		</defs>
		<clipPath id="SVGID_00000003818339868415799350000009840669853692101801_">
			<use xlink:href="#SVGID_00000129902945369542357400000009474766863824709028_" style="overflow:visible;"/>
		</clipPath>
		
			<linearGradient id="SVGID_00000093860361162904052520000008371499999576268216_" gradientUnits="userSpaceOnUse" x1="2042.3021" y1="1997.8955" x2="4918.1514" y2="2002.0425">
			<stop offset="0" style="stop-color:#FFFB90"/>
			<stop offset="0.13" style="stop-color:#FBEC7A"/>
			<stop offset="0.24" style="stop-color:#F8DC65"/>
			<stop offset="0.33" style="stop-color:#C8A443"/>
			<stop offset="0.49" style="stop-color:#996C22"/>
			<stop offset="0.62" style="stop-color:#CAAA4D"/>
			<stop offset="0.69" style="stop-color:#FBE878"/>
			<stop offset="0.73" style="stop-color:#FDF491"/>
			<stop offset="0.77" style="stop-color:#FFFFAA"/>
			<stop offset="0.8" style="stop-color:#FDF491"/>
			<stop offset="0.83" style="stop-color:#FBE878"/>
			<stop offset="0.92" style="stop-color:#D0A549"/>
			<stop offset="1" style="stop-color:#A4631B"/>
		</linearGradient>
		
			
	</g>
</g>
</svg>